<?xml version="1.0" encoding="UTF-8"?>
<svg id="Layer_1" xmlns="http://www.w3.org/2000/svg" width="500" height="500" viewBox="0 0 500 500">
  <path d="M311.906,245.452s-38.966,30.729-43.549,43.621c-4.582,12.891,2.784,27.624,17.517,34.991,14.733,7.366,3.683-9.208,1.842-20.258-1.842-11.05-7.366-7.366,14.733-23.941,22.099-16.575,23.941-20.258,23.941-20.258l-14.484-14.155Z" fill="#fed001"/>
  <path d="M122.891,214.487L10.552,317.618s-14.733,12.891-5.525,29.466c9.208,16.575,20.258,18.416,20.258,18.416,0,0,3.683-7.366-1.842-22.099-5.525-14.733,24.597-33.969,39.002-43.688,14.405-9.719,65.97-48.393,65.97-48.393,0,0,3.683,3.683,5.525,3.683s3.683,3.683,3.683,7.366,11.05,42.357,46.04,51.565,66.298-9.208,81.031-31.308,20.258-51.565,20.258-66.298c0,0,14.733-5.525,18.416,12.891s31.308,58.932,77.348,57.09c46.04-1.842,71.823-42.357,71.823-73.665l-136.983.77-18.634-14.582-19.508,14.796-152.683.858s-1.842,0-1.842,0Z" fill="#ffa41f"/>
  <path d="M435.046,152.793s-283.609,42.357-300.184,51.565c-16.575,9.208-8.926,20.258-1.7,35.912,7.225,15.654,7.615-4.47,12.945,19.404,5.33,23.874,31.113,53.34,75.312,45.974s60.001-43.909,62.229-74.441c2.228-30.531,13.278-23.165,18.802-23.165s6.413,25.783,26.227,43.278c19.814,17.495,39.053,31.072,80.078,20.6s44.708-55.1,43.787-76.984c0,0,6.446-7.152,6.446-20.043s1.842-25.783-23.941-22.099Z" fill="#fed001"/>
  <path d="M148.674,242.111c-1.842-5.525-23.941-29.466,51.565-44.199,75.506-14.733,72.842,14.733,73.253,22.099s5.889,60.554-45.629,71.823c-58.932,12.891-77.348-44.199-79.19-49.724Z" fill="#ffb81a"/>
  <path d="M446.559,194.382c.076-5.823,13.859-35.346-62.555-26.446-76.414,8.9-64.924,36.164-63.078,43.308,1.846,7.143,12.784,59.481,65.291,54.568,60.063-5.62,60.266-65.607,60.343-71.43Z" fill="#ffb81a"/>
  <path d="M266.038,247.294s-6.587,20.525-17.417,26.468" fill="none" stroke="#e8a600" stroke-linecap="round" stroke-linejoin="round" stroke-width="3"/>
  <path d="M156.04,242.111s-7.366-23.941,12.891-27.624" fill="none" stroke="#e8a600" stroke-linecap="round" stroke-linejoin="round" stroke-width="3"/>
  <path d="M435.967,203.437s0,40.516-38.674,51.565" fill="none" stroke="#e8a600" stroke-linecap="round" stroke-linejoin="round" stroke-width="3"/>
</svg>